<?xml version="1.0" standalone="no"?>
<!DOCTYPE svg PUBLIC "-//W3C//DTD SVG 20010904//EN"
 "http://www.w3.org/TR/2001/REC-SVG-20010904/DTD/svg10.dtd">
<svg version="1.0" xmlns="http://www.w3.org/2000/svg"
 width="572.000000pt" height="511.000000pt" viewBox="0 0 572.000000 511.000000"
 preserveAspectRatio="xMidYMid meet">

<g transform="translate(0.000000,511.000000) scale(0.100000,-0.100000)"
fill="#000000" stroke="none">
<path d="M0 2844 c0 -1809 3 -2265 12 -2261 53 20 536 254 835 404 l365 183
80 -75 c196 -185 454 -346 727 -455 99 -39 347 -111 431 -125 25 -4 68 -17 95
-30 28 -12 91 -30 140 -39 118 -22 119 -22 198 -31 61 -6 67 -9 62 -26 -7 -23
3 -24 29 -4 15 12 53 15 167 15 254 0 521 46 732 126 52 20 107 34 132 34 38
0 46 4 57 27 11 23 59 60 80 62 3 1 8 -7 11 -16 3 -15 6 -13 17 9 8 16 45 47
88 74 67 42 166 117 262 199 111 94 267 276 370 430 42 62 160 292 160 310 0
3 21 33 46 66 44 58 53 87 18 58 -16 -12 -17 -12 -11 6 65 211 106 395 94 419
-9 19 -5 19 114 13 105 -6 272 -29 382 -53 l27 -6 0 1476 0 1476 -2860 0
-2860 0 0 -2266z m3041 2076 c659 -65 1232 -413 1599 -971 80 -121 188 -344
235 -482 87 -258 128 -583 107 -841 -73 -882 -636 -1609 -1462 -1890 -223 -75
-428 -108 -680 -108 -206 0 -332 15 -525 63 -845 207 -1486 918 -1611 1785
-23 159 -23 458 0 609 107 704 540 1302 1173 1619 202 101 465 182 663 205 52
6 109 13 125 15 68 7 280 5 376 -4z m989 -4340 c0 -5 -2 -10 -4 -10 -3 0 -8 5
-11 10 -3 6 -1 10 4 10 6 0 11 -4 11 -10z"/>
<path d="M2965 4426 c-56 -24 -40 23 -210 -641 -42 -165 -88 -344 -101 -398
-46 -184 -80 -244 -161 -283 -103 -51 -267 -31 -300 36 -16 32 -16 127 1 213
19 100 22 98 -187 95 l-172 -3 -17 -80 c-24 -108 -26 -254 -4 -327 48 -165
185 -229 492 -232 98 -1 153 -5 150 -11 -2 -5 -9 -9 -16 -7 -7 2 -38 -21 -69
-51 -49 -47 -64 -56 -116 -66 -39 -7 -72 -22 -97 -41 -20 -17 -43 -30 -51 -30
-22 0 -39 -26 -33 -48 4 -12 -2 -29 -15 -46 -31 -39 -11 -56 26 -22 27 25 28
25 54 7 14 -11 37 -30 49 -44 25 -27 21 -48 -13 -77 -12 -10 -13 -16 -4 -27 9
-10 8 -18 -6 -33 -20 -22 -45 -27 -45 -8 0 6 7 20 17 30 16 17 6 18 -302 18
-302 0 -321 -1 -361 -21 -24 -11 -52 -35 -63 -52 -10 -18 -53 -171 -95 -342
-42 -170 -79 -318 -82 -327 -5 -17 70 -18 1478 -18 1392 0 1485 1 1517 18 65
33 64 30 206 619 14 56 25 107 25 113 0 7 -94 10 -279 10 l-278 0 -59 -30
c-32 -17 -95 -40 -139 -52 -76 -21 -105 -22 -536 -26 -512 -4 -487 -7 -470 67
l9 41 -249 0 c-137 0 -249 3 -249 6 0 16 35 32 47 22 15 -12 43 6 43 29 0 8
13 33 29 56 19 27 33 65 40 105 8 51 18 72 47 105 21 23 41 44 45 47 4 3 9 14
10 25 4 18 449 467 449 452 0 -4 -14 -71 -31 -150 -105 -490 -159 -751 -159
-764 0 -23 828 -13 940 12 213 45 391 205 455 406 58 183 15 347 -105 407
l-40 19 65 42 c104 68 165 159 195 292 29 129 -11 260 -99 325 -80 59 -151 75
-356 82 l-180 6 71 16 c49 11 84 27 110 48 20 17 41 29 44 27 4 -3 15 4 25 15
14 16 16 23 7 32 -9 9 -5 20 14 45 33 43 22 61 -18 28 -16 -14 -33 -25 -37
-25 -4 0 -27 20 -51 45 l-44 45 22 30 c31 41 18 57 -20 25 -20 -17 -37 -23
-52 -19 -22 5 -34 -7 -42 -43 -1 -6 -14 -27 -28 -46 -18 -23 -30 -57 -37 -98
-10 -64 -16 -74 -76 -138 -17 -18 -29 -39 -27 -45 2 -6 -88 -103 -201 -216
-113 -113 -205 -201 -205 -197 0 5 34 139 75 298 41 160 75 297 75 305 0 11
-15 14 -60 14 -46 0 -62 4 -67 16 -9 24 15 34 85 34 47 0 62 3 62 15 0 10 -15
15 -57 17 -50 3 -58 6 -58 23 0 18 8 20 65 23 86 4 100 25 22 32 -49 4 -57 8
-57 25 0 17 8 20 60 23 55 3 80 15 69 34 -3 4 -27 8 -55 8 -42 0 -49 3 -49 20
0 21 18 28 84 32 39 3 40 4 53 53 7 28 13 53 13 58 0 13 -322 7 -355 -7z m840
-385 c-8 -7 -135 107 -135 122 0 4 31 -20 70 -54 38 -35 67 -65 65 -68z m-121
28 c14 -11 26 -25 26 -31 0 -7 -10 -2 -23 10 -27 26 -40 27 -57 7 -18 -22 -24
-11 -8 14 16 26 28 26 62 0z m176 -505 c60 -35 74 -91 45 -175 -23 -65 -69
-106 -143 -129 -54 -17 -94 -20 -251 -20 l-186 -1 -45 -39 c-24 -22 -45 -38
-47 -36 -2 1 9 56 23 122 14 65 32 153 40 194 8 41 17 83 20 93 5 17 21 18
257 15 233 -3 255 -5 287 -24z m-128 -611 c62 -28 83 -62 82 -132 -2 -107 -62
-199 -158 -243 -48 -22 -65 -23 -304 -26 -242 -3 -254 -3 -248 15 3 10 21 97
41 193 20 96 39 186 42 198 l6 24 246 -4 c225 -3 250 -5 293 -25z m-1524 -471
c29 -25 58 -55 64 -66 6 -12 -21 8 -60 43 -109 96 -112 114 -4 23z m57 38 c22
-25 34 -25 51 -3 18 26 26 11 8 -15 -20 -29 -35 -28 -69 8 -16 17 -24 30 -18
30 5 0 18 -9 28 -20z m2088 -243 c32 -21 31 -39 -8 -162 l-22 -70 5 95 c3 73
1 98 -9 107 -21 17 -122 33 -205 33 -42 0 -76 5 -80 11 -4 8 37 10 143 7 123
-2 154 -6 176 -21z m-2498 -7 c3 -5 1 -19 -5 -30 -10 -19 -19 -21 -88 -18 -69
3 -77 5 -77 23 0 16 9 21 45 26 74 10 118 10 125 -1z m-27 -101 c36 -12 43
-33 30 -93 -9 -43 -12 -46 -42 -46 -41 0 -47 6 -35 37 6 18 6 30 -2 39 -15 18
-70 18 -113 0 -29 -12 -36 -23 -50 -69 -9 -30 -16 -60 -16 -66 0 -7 30 -11 85
-11 47 0 85 -2 85 -4 0 -3 -4 -16 -10 -30 -9 -25 -12 -26 -99 -26 l-90 0 -20
-67 c-25 -84 -17 -98 59 -98 56 0 78 16 96 68 9 27 16 32 47 35 41 4 44 -3 26
-59 -26 -77 -82 -109 -189 -109 -83 0 -127 18 -136 56 -6 23 56 249 97 355 14
36 59 78 95 89 41 12 146 12 182 -1z m1038 -11 c-20 -72 -20 -68 13 -68 33 0
34 -2 25 -37 -5 -17 -15 -23 -42 -25 l-36 -3 -43 -133 c-46 -140 -46 -162 -2
-162 22 0 22 0 9 -34 -8 -22 -16 -26 -50 -26 -43 0 -80 27 -80 58 1 9 29 107
64 217 61 193 64 201 97 217 45 23 53 23 45 -4z m960 0 c-20 -72 -20 -68 13
-68 31 0 38 -11 25 -44 -4 -10 -18 -16 -40 -16 -40 0 -37 4 -89 -165 -34 -114
-33 -135 6 -135 22 0 22 0 9 -34 -8 -22 -16 -26 -48 -26 -51 0 -75 19 -74 57
1 28 37 157 99 346 21 67 29 80 56 92 45 19 50 18 43 -7z m-1790 -5 c-2 -10
-37 -123 -77 -250 l-73 -233 -33 0 c-42 0 -42 3 1 138 19 59 49 154 66 212 48
157 44 150 85 150 30 0 35 -3 31 -17z m1184 8 c0 -5 -4 -21 -10 -35 -7 -20
-17 -26 -39 -26 -35 0 -45 12 -37 46 5 20 12 24 46 24 22 0 40 -4 40 -9z m450
0 c0 -5 -4 -21 -10 -35 -7 -20 -17 -26 -39 -26 -37 0 -44 11 -31 44 8 21 16
26 45 26 19 0 35 -4 35 -9z m500 -16 c0 -25 -1 -25 -86 -25 -76 0 -85 2 -82
17 4 20 39 30 116 32 49 1 52 0 52 -24z m-1090 -94 c-6 -12 -19 -21 -29 -21
-35 0 -60 -46 -109 -200 l-49 -155 -37 -3 c-20 -2 -36 -1 -36 3 0 16 93 304
108 334 22 45 57 69 112 79 50 9 60 -1 40 -37z m-730 19 c25 -25 25 -38 -3
-130 l-23 -75 -115 -3 -116 -3 -13 -55 c-17 -70 -13 -74 98 -74 45 0 82 -3 82
-7 0 -5 -3 -18 -6 -30 -6 -22 -11 -23 -115 -23 -96 0 -111 2 -129 20 -11 11
-20 32 -20 46 0 33 76 271 96 302 24 36 70 51 162 52 69 0 85 -3 102 -20z
m356 -2 c-3 -13 -6 -26 -6 -29 0 -4 -34 -9 -76 -11 -93 -4 -93 -4 -140 -157
-26 -82 -33 -116 -25 -124 6 -6 40 -13 76 -15 36 -2 65 -6 65 -8 0 -1 -4 -14
-10 -28 -9 -25 -12 -26 -94 -26 -80 0 -86 1 -106 27 -25 33 -24 40 25 199 52
168 81 193 219 194 76 0 78 -1 72 -22z m484 15 c0 -5 -28 -98 -63 -208 l-63
-200 -37 -3 c-20 -2 -37 0 -37 4 0 4 29 99 65 211 l66 203 34 0 c19 0 35 -3
35 -7z m316 -15 c-3 -13 -6 -26 -6 -30 0 -5 -29 -8 -64 -8 -93 0 -106 -14
-151 -156 -26 -83 -33 -120 -26 -127 6 -6 40 -13 76 -15 36 -2 65 -6 65 -8 0
-1 -4 -14 -10 -28 -9 -25 -13 -26 -90 -26 -73 0 -83 3 -105 25 -14 13 -25 28
-25 33 0 12 65 229 80 267 27 70 73 94 184 95 76 0 78 -1 72 -22z m134 10 c0
-7 -28 -102 -62 -210 l-62 -198 -33 0 c-23 0 -33 5 -33 16 0 8 28 103 62 210
l62 194 33 0 c20 0 33 -5 33 -12z m525 -2 c24 -18 23 -55 -4 -144 l-22 -73
-113 3 -114 3 -17 -54 c-16 -52 -16 -55 1 -68 11 -8 48 -13 101 -13 46 0 83
-2 83 -4 0 -3 -4 -16 -10 -30 -9 -26 -11 -26 -113 -26 -166 0 -174 17 -107
229 54 171 75 190 211 191 56 0 91 -5 104 -14z"/>
<path d="M2190 2031 c-28 -8 -70 -64 -70 -92 0 -17 9 -19 74 -19 l74 0 11 31
c16 46 14 67 -8 79 -22 11 -43 11 -81 1z"/>
<path d="M3994 2026 c-31 -14 -38 -24 -54 -79 l-9 -28 76 3 76 3 15 43 c9 28
11 47 5 53 -17 17 -77 20 -109 5z"/>
</g>
</svg>
